#N canvas 827 239 734 565 12;
#X obj 821 209 openpanel;
#X obj 821 253 soundfiler;
#X obj 821 187 bng 15 250 50 0 empty empty empty 0 -6 0 8 #fcfcfc #000000 #000000;
#N canvas 0 0 450 300 (subpatch) 0;
#X array samplebufL 1.3159e+06 float 2;
#X coords 0 1 1.3159e+06 -1 100 100 1;
#X restore 1419 229 graph;
#N canvas 0 0 450 300 (subpatch) 0;
#X array grain-env 2048 float 0;
#X coords 0 1 2047 -1 100 100 1;
#X restore 1098 223 graph;
#X obj 1030 449 * 44100;
#X floatatom 1040 430 5 0 0 0 - - - 0;
#X obj 1030 472 s grainpitch;
#X obj 1033 412 hsl 64 12 0.1 2 0 0 empty empty grainpitch 7 6 1 8 #fcfcfc #000000 #000000 0 1;
#X floatatom 964 430 5 0 0 0 - - - 0;
#X obj 957 412 hsl 64 12 1 2000 0 0 empty empty graindur 7 6 1 8 #fcfcfc #000000 #000000 0 1;
#X obj 954 472 s graindur;
#X floatatom 835 382 5 0 0 0 - - - 0;
#X obj 828 364 hsl 64 12 0 1 0 0 empty empty grainstart 7 6 1 8 #fcfcfc #000000 #000000 0 1;
#X obj 839 471 s grainstart;
#X obj 821 275 s filesize;
#X obj 871 406 r filesize;
#X obj 855 428 f;
#X obj 825 405 t f b;
#X obj 839 449 *;
#X obj 1082 740 dac~;
#X obj 815 873 grainvoice;
#X obj 822 302 loadbang;
#N canvas 737 338 274 245 make-grain-env 0;
#X obj 16 42 t b b;
#X obj 16 106 f;
#X obj 44 106 + 1;
#X msg 54 63 0;
#X obj 16 85 until;
#X obj 16 127 t f f;
#X obj 16 20 inlet;
#X obj 16 188 tabwrite grain-env;
#X msg 16 63 2048;
#X obj 16 148 expr ($f1-1024)/1024;
#X obj 16 168 expr 0.5+(cos($f1 * 3.141)/2);
#X connect 0 0 8 0;
#X connect 0 1 3 0;
#X connect 1 0 2 0;
#X connect 1 0 5 0;
#X connect 2 0 1 1;
#X connect 3 0 1 1;
#X connect 4 0 1 0;
#X connect 5 0 9 0;
#X connect 5 1 7 1;
#X connect 6 0 0 0;
#X connect 8 0 4 0;
#X connect 9 0 10 0;
#X connect 10 0 7 0;
#X restore 822 323 pd make-grain-env;
#X obj 906 825 route 0 1 2 3;
#X obj 927 647 f;
#X obj 955 647 + 1;
#X obj 927 672 mod 4;
#X obj 927 696 t f b b;
#X obj 906 803 pack f f f;
#X obj 927 623 metro 100;
#X obj 927 579 tgl 30 0 empty empty start 0 -6 0 8 #ff0400 #000000 #000000 0 1;
#X obj 971 783 + 1;
#X obj 971 762 / 10000;
#X obj 971 741 random 200;
#X msg 815 852 \$1 \$2 1;
#X msg 898 851 \$1 \$2 1;
#X msg 982 851 \$1 \$2 1;
#X msg 1061 850 \$1 \$2 1;
#X obj 938 721 random 10000;
#X obj 1103 660 rev3~ 95 90;
#X obj 953 513 r graindur;
#X floatatom 1129 430 5 0 0 0 - - - 0;
#X obj 1122 412 hsl 64 12 1 2 0 0 empty empty overlap 7 6 1 8 #fcfcfc #000000 #000000 0 1;
#X obj 985 535 r overlap;
#X obj 985 602 /;
#X obj 985 578 t b f;
#X obj 1119 472 s overlap;
#X obj 953 535 / 2;
#X obj 898 872 grainvoice;
#X obj 982 872 grainvoice;
#N canvas 0 0 450 300 (subpatch) 0;
#X array samplebufR 1.3159e+06 float 2;
#X coords 0 1 1.3159e+06 -1 100 100 1;
#X restore 1540 230 graph;
#X obj 1061 876 grain.synth~;
#X msg 821 230 read -resize \$1 samplebufL samplebufR;
#X obj 1074 612 catch~ busL;
#X obj 1266 656 rev3~ 95 90;
#X obj 1241 627 catch~ busR;
#X connect 0 0 53 0;
#X connect 1 0 15 0;
#X connect 2 0 0 0;
#X connect 5 0 7 0;
#X connect 8 0 6 0;
#X connect 8 0 5 0;
#X connect 10 0 9 0;
#X connect 10 0 11 0;
#X connect 13 0 12 0;
#X connect 13 0 18 0;
#X connect 16 0 17 1;
#X connect 17 0 19 1;
#X connect 18 0 19 0;
#X connect 18 1 17 0;
#X connect 19 0 14 0;
#X connect 22 0 23 0;
#X connect 24 0 35 0;
#X connect 24 1 36 0;
#X connect 24 2 37 0;
#X connect 24 3 38 0;
#X connect 25 0 26 0;
#X connect 25 0 27 0;
#X connect 26 0 25 1;
#X connect 27 0 28 0;
#X connect 28 0 29 0;
#X connect 28 1 39 0;
#X connect 28 2 34 0;
#X connect 29 0 24 0;
#X connect 30 0 25 0;
#X connect 31 0 30 0;
#X connect 32 0 29 2;
#X connect 33 0 32 0;
#X connect 34 0 33 0;
#X connect 35 0 21 0;
#X connect 36 0 49 0;
#X connect 37 0 50 0;
#X connect 38 0 52 0;
#X connect 39 0 29 1;
#X connect 40 0 20 0;
#X connect 40 1 20 1;
#X connect 41 0 48 0;
#X connect 43 0 42 0;
#X connect 43 0 47 0;
#X connect 44 0 46 0;
#X connect 45 0 30 1;
#X connect 46 0 45 0;
#X connect 46 1 45 1;
#X connect 48 0 45 0;
#X connect 53 0 1 0;
#X connect 54 0 20 0;
#X connect 54 0 20 1;
#X connect 54 0 40 0;
#X connect 55 0 20 0;
#X connect 55 1 20 1;
#X connect 56 0 55 0;
#X connect 56 0 20 0;
#X connect 56 0 20 1;
