#N canvas 530 45 1082 729 12;
#X obj 596 583 file glob;
#X obj 596 491 openpanel 1;
#X msg 596 608 \$2 \$1;
#X obj 596 633 route 0 1;
#X obj 615 670 symbol;
#X obj 647 608 bng 18 250 50 0 empty empty empty 17 7 0 10 #fcfcfc #000000 #000000;
#X obj 730 764 list;
#X text 674 608 nothing;
#X floatatom 1235 650 5 0 0 0 - - - 0;
#X obj 1181 746 outlet;
#X obj 596 439 inlet;
#X obj 781 824 text define \$0-dirfiles;
#X obj 730 791 text insert \$0-dirfiles 1e+07;
#X obj 1208 626 text size \$0-dirfiles;
#X obj 1184 700 text get \$0-dirfiles;
#X msg 684 490 -1;
#X obj 684 516 text delete \$0-dirfiles;
#X obj 600 465 bng 15 250 50 0 empty empty empty 17 7 0 10 #fcfcfc #000000 #000000;
#X text 650 436 open dir;
#X obj 597 697 print wav-files;
#X msg 596 556 symbol \$1/*.wav \, symbol \$1/*/;
#X obj 1156 655 random;
#X obj 1122 521 inlet;
#X obj 1170 560 bng 40 250 50 0 empty empty empty 17 7 0 10 #fcfcfc #000000 #000000;
#X obj 1235 746 print random filename;
#X text 727 824 click >;
#X obj 806 605 file glob;
#X msg 807 647 \$2 \$1;
#X obj 807 672 route 0 1;
#X obj 830 700 symbol;
#X obj 854 647 bng 15 250 50 0 empty empty empty 17 7 0 10 #fcfcfc #000000 #000000;
#X text 876 646 nothing;
#X obj 807 722 print aiff-files;
#X msg 830 572 symbol \$1/*.aiff \, symbol \$1/*/;
#X obj 1233 596 r \$0-dn;
#X obj 719 688 s \$0-totxt;
#X obj 718 713 r \$0-totxt;
#X obj 838 484 bng 15 250 50 0 empty empty empty 17 7 0 10 #fcfcfc #000000 #000000;
#X obj 834 506 openpanel 2;
#X obj 834 539 s \$0-totxt;
#X obj 718 734 t b a;
#X obj 600 756 s \$0-dn;
#X obj 834 459 inlet;
#X obj 1237 677 bng 15 250 50 0 empty empty empty 17 7 0 10 #fcfcfc #000000 #000000;
#X obj 596 516 t s s;
#X obj 600 733 del 200;
#X obj 1351 654 print;
#X msg 1351 628 --------;
#X obj 1418 1029 dac~;
#X text 1046 570 play random files;
#X obj 1336 404 tgl 18 0 empty empty empty 0 -9 0 10 #fcfcfc #000000 #000000 0 1;
#X obj 1363 473 f;
#X obj 1401 473 + 1;
#X obj 1336 450 t b b;
#X obj 1339 542 bng 18 250 50 0 empty empty empty 0 -9 0 10 #fcfcfc #000000 #000000;
#X obj 1363 496 mod 4;
#X obj 1363 519 sel 0;
#X obj 1363 542 bng 18 250 50 0 empty empty empty 0 -9 0 10 #fcfcfc #000000 #000000;
#X obj 1336 427 metro 500;
#X obj 1440 311 vradio 18 1 0 8 empty empty empty 0 -9 0 10 #fcfcfc #000000 #000000 0;
#X obj 1437 473 + 1;
#X obj 1170 453 key;
#X floatatom 1170 482 4 0 0 0 - - - 0;
#X obj 1170 505 sel 49;
#N canvas 0 0 450 250 (subpatch) 0;
#X array samplebufL 1.69001e+07 float 2;
#X coords 0 1 1.69001e+07 -1 200 140 1;
#X restore 618 183 graph;
#N canvas 0 0 450 250 (subpatch) 0;
#X array samplebufR 1.69001e+07 float 2;
#X coords 0 1 1.69001e+07 -1 200 140 1;
#X restore 839 187 graph;
#X msg 1417 815 read -resize \$1 samplebufL samplebufR;
#X obj 1420 852 soundfiler;
#X obj 1160 977 tabplay~ samplebufL;
#X obj 1314 975 tabplay~ samplebufR;
#X obj 1420 878 bng 25 250 50 0 empty empty empty 17 7 0 10 #e4e4e4 #4d4d4d #373737;
#X connect 0 0 2 0;
#X connect 0 1 5 0;
#X connect 1 0 44 0;
#X connect 2 0 3 0;
#X connect 3 0 19 0;
#X connect 3 0 35 0;
#X connect 3 1 4 0;
#X connect 4 0 20 0;
#X connect 6 0 12 0;
#X connect 8 0 43 0;
#X connect 10 0 17 0;
#X connect 13 0 8 0;
#X connect 13 0 21 1;
#X connect 14 0 24 0;
#X connect 14 0 9 0;
#X connect 14 0 66 0;
#X connect 15 0 16 0;
#X connect 17 0 15 0;
#X connect 17 0 1 0;
#X connect 20 0 0 0;
#X connect 21 0 14 0;
#X connect 22 0 23 0;
#X connect 23 0 21 0;
#X connect 26 0 27 0;
#X connect 26 1 30 0;
#X connect 27 0 28 0;
#X connect 28 0 32 0;
#X connect 28 0 35 0;
#X connect 28 1 29 0;
#X connect 29 0 33 0;
#X connect 33 0 26 0;
#X connect 34 0 13 0;
#X connect 34 0 47 0;
#X connect 36 0 40 0;
#X connect 37 0 38 0;
#X connect 38 0 39 0;
#X connect 40 0 45 0;
#X connect 40 1 6 0;
#X connect 42 0 37 0;
#X connect 44 0 20 0;
#X connect 44 1 33 0;
#X connect 45 0 41 0;
#X connect 47 0 46 0;
#X connect 50 0 58 0;
#X connect 51 0 52 0;
#X connect 51 0 55 0;
#X connect 52 0 51 1;
#X connect 53 0 54 0;
#X connect 53 1 51 0;
#X connect 55 0 56 0;
#X connect 56 0 57 0;
#X connect 57 0 23 0;
#X connect 58 0 53 0;
#X connect 59 0 60 0;
#X connect 60 0 55 1;
#X connect 61 0 62 0;
#X connect 62 0 63 0;
#X connect 66 0 67 0;
#X connect 67 0 70 0;
#X connect 68 0 48 0;
#X connect 69 0 48 1;
#X connect 70 0 68 0;
#X connect 70 0 69 0;
