#N struct 1254-template float x float y float c float s float th float stretch array 1254-plus 1254-template-y array 1254-minus 1254-template-y;
#N struct 1254-template-y float y;
#N struct 1255-template float x float y float c float s float th float stretch array 1255-plus 1255-template-y array 1255-minus 1255-template-y;
#N struct 1255-template-y float y;
#N canvas 194 235 1721 764 12;
#X declare -path /Users/emiliano/Documents/PureData/Envion-Algo-Score/asset;
#X obj 169 169 tgl 15 0 \$0-play/pause \$0-play/pauser Play/Pause 20 10 2 12 #fcfcfc #000000 #000000 0 1;
#X obj 343 171 tgl 15 0 \$0-ff \$0-ffr >> 17 7 2 12 #fcfcfc #000000 #000000 0 1;
#X obj 288 171 tgl 15 0 \$0-rw \$0-rwr << 17 7 2 12 #fcfcfc #000000 #000000 0 1;
#X obj 171 211 hsl 200 15 0 0.05 0 0 \$0-hiss \$0-hissr Tape-Hiss -2 -8 2 12 #fcfcfc #000000 #000000 0 1;
#X obj 171 246 hsl 200 15 0 10 0 0 \$0-wowflutter \$0-wowflutterr Wow&Flutter -2 -8 2 12 #fcfcfc #000000 #000000 0 1;
#X obj 168 486 tgl 15 0 \$0-bypass \$0-bypassr Bypass 17 7 2 12 #fcfcfc #000000 #000000 0 1;
#X obj 168 459 s \$0-tape-IR;
#X obj 170 104 bng 15 250 50 0 \$0-open \$0-openr open\ Soundfile 20 10 2 12 #fcfcfc #000000 #000000;
#X obj 171 143 hsl 200 15 1 100 0 0 \$0-volume \$0-volumer Volume -2 -8 2 12 #fc8000 #000000 #000000 0 1;
#X msg 168 324 IR-Dual-CC3600-1.wav;
#X msg 168 346 IR-Dual-CC3600-2.wav;
#X msg 168 368 IR-Dual-CC3600-3.wav;
#X msg 168 391 IR-Dual-CC3600-4.wav;
#X msg 168 413 IR-Panasonic_TapeDeck-269-1.wav;
#X msg 168 435 IR-Panasonic_TapeDeck-269-2.wav;
#X text 165 298 load tape saturation IR;
#N canvas 0 22 450 300 tapedeck 0;
#X obj 516 380 pp.sfplayer~;
#A saved;
#X obj 920 306 openpanel;
#X obj 920 287 bng 15 250 50 0 empty empty empty 17 7 0 10 #fcfcfc #000000 #000000;
#X obj 697 205 sig~;
#X obj 697 260 *~ 100;
#X obj 653 179 f;
#X obj 670 142 sel 0;
#X obj 722 149 sel 0;
#X obj 696 235 lop~ 1.2;
#X obj 663 558 pp.fft-partconv-st~;
#A saved;
#X obj 776 318 +~;
#X obj 645 41 r \$0-play/pause;
#X obj 722 129 tgl 15 0 empty empty empty 17 7 0 10 #fcfcfc #000000 #000000 0 1;
#X obj 667 127 tgl 15 0 empty empty empty 17 7 0 10 #fcfcfc #000000 #000000 0 1;
#X obj 650 85 tgl 15 0 empty empty empty 17 7 0 10 #fcfcfc #000000 #000000 0 1;
#X obj 667 103 r \$0-rw;
#X obj 722 104 r \$0-ff;
#X obj 762 400 noise~;
#X obj 747 483 +~;
#X obj 662 484 +~;
#X floatatom 931 196 5 0 0 0 - - - 0;
#X obj 791 289 *~ 1;
#X obj 763 451 *~ 1;
#X msg 918 551 dry/wet \$1;
#X obj 918 529 * 100;
#X obj 762 426 *~ 0.005;
#X obj 884 386 r \$0-hiss;
#X floatatom 884 407 5 0 0 0 - - - 0;
#X obj 797 451 r \$0-bypass;
#X obj 853 258 r \$0-bypass;
#X obj 918 484 r \$0-bypass;
#X obj 918 507 == 0;
#X obj 797 472 == 0;
#X obj 853 279 == 0;
#X obj 836 482 r \$0-tape-IR;
#X obj 836 506 symbol;
#X msg 836 531 loadIR \$1;
#X obj 920 266 r \$0-open;
#X obj 788 138 pp.lfnoise~ 30;
#A saved;
#X msg 920 327 open \$1 \, play 1;
#X obj 752 173 * 6;
#X obj 697 173 * -5;
#N canvas 269 95 450 300 init 0;
#X obj 30 212 s \$0-tape-IR;
#X msg 30 186 IR-Dual-CC3600-1.wav;
#X obj 31 41 loadbang;
#X obj 65 148 s \$0-hissr;
#X msg 143 74 \; pd dsp 1;
#X msg 65 127 0.005;
#X obj 134 148 s \$0-wowflutterr;
#X msg 134 127 1;
#X obj 356 90 declare -path /Users/emiliano/Documents/PureData/Envion-Algo-Score/asset;
#X connect 1 0 0 0;
#X connect 2 0 1 0;
#X connect 2 0 5 0;
#X connect 2 0 7 0;
#X connect 2 0 4 0;
#X connect 5 0 3 0;
#X connect 7 0 6 0;
#X restore 967 354 pd init;
#N canvas 3 50 450 300 init 0;
#X obj 97 72 loadbang;
#X msg 97 93 steps 1 \, smooth 100;
#X obj 97 114 outlet;
#X connect 0 0 1 0;
#X connect 1 0 2 0;
#X restore 881 115 pd init;
#N canvas 3 50 450 300 init 0;
#X obj 97 72 loadbang;
#X obj 97 114 outlet;
#X msg 97 93 playback-speed 0 \, loop 1;
#X connect 0 0 2 0;
#X connect 2 0 1 0;
#X restore 835 320 pd init;
#X obj 664 694 *~;
#X obj 793 717 *~;
#X obj 765 615 r \$0-play/pause;
#X obj 765 640 sig~;
#X obj 765 666 lop~ 0.5;
#X obj 790 244 +~;
#N canvas 3 50 450 300 init 0;
#X obj 97 72 loadbang;
#X obj 97 114 outlet;
#X msg 97 93 steps 100 \, smooth 100;
#X connect 0 0 2 0;
#X connect 2 0 1 0;
#X restore 1000 115 pd init;
#X obj 907 139 pp.lfnoise~ 0.3;
#A saved;
#X obj 931 172 r \$0-wowflutter;
#X obj 791 219 *~ 1;
#X obj 910 226 *~ 1;
#X obj 641 769 outlet~ tapedeckL;
#X obj 778 768 outlet~ tapedeckR;
#X connect 0 0 19 0;
#X connect 0 1 18 0;
#X connect 1 0 39 0;
#X connect 2 0 1 0;
#X connect 3 0 8 0;
#X connect 4 0 10 0;
#X connect 5 0 3 0;
#X connect 6 0 5 0;
#X connect 6 1 41 0;
#X connect 7 0 5 0;
#X connect 7 1 40 0;
#X connect 8 0 4 0;
#X connect 9 0 45 0;
#X connect 9 1 46 0;
#X connect 10 0 0 2;
#X connect 11 0 14 0;
#X connect 12 0 7 0;
#X connect 13 0 6 0;
#X connect 14 0 5 0;
#X connect 15 0 13 0;
#X connect 16 0 12 0;
#X connect 17 0 25 0;
#X connect 18 0 9 1;
#X connect 19 0 9 0;
#X connect 20 0 54 1;
#X connect 20 0 55 1;
#X connect 21 0 10 1;
#X connect 22 0 18 1;
#X connect 22 0 19 1;
#X connect 23 0 9 3;
#X connect 24 0 23 0;
#X connect 25 0 22 0;
#X connect 26 0 27 0;
#X connect 27 0 25 1;
#X connect 28 0 32 0;
#X connect 29 0 33 0;
#X connect 30 0 31 0;
#X connect 31 0 24 0;
#X connect 32 0 22 1;
#X connect 33 0 21 1;
#X connect 34 0 35 0;
#X connect 35 0 36 0;
#X connect 36 0 9 3;
#X connect 37 0 2 0;
#X connect 38 0 54 0;
#X connect 39 0 0 3;
#X connect 40 0 3 0;
#X connect 41 0 3 0;
#X connect 43 0 38 1;
#X connect 44 0 0 3;
#X connect 45 0 56 0;
#X connect 46 0 57 0;
#X connect 47 0 48 0;
#X connect 48 0 49 0;
#X connect 49 0 45 1;
#X connect 49 0 46 1;
#X connect 50 0 21 0;
#X connect 51 0 52 1;
#X connect 52 0 55 0;
#X connect 53 0 20 0;
#X connect 54 0 50 0;
#X connect 55 0 50 1;
#X restore 435 148 pd tapedeck;
#X connect 9 0 6 0;
#X connect 10 0 6 0;
#X connect 11 0 6 0;
#X connect 12 0 6 0;
#X connect 13 0 6 0;
#X connect 14 0 6 0;
